<svg width="172" height="131" viewBox="0 0 172 131" fill="none" xmlns="http://www.w3.org/2000/svg">
<mask id="mask0_102_416" style="mask-type:luminance" maskUnits="userSpaceOnUse" x="75" y="111" width="10" height="10">
<path d="M76.1948 111.601H84.5129V119.919H76.1948V111.601Z" fill="white" stroke="white" stroke-width="0.410092"/>
</mask>
<g mask="url(#mask0_102_416)">
<path d="M80.3539 112.738L84.6209 111.48L83.3759 115.76L84.6209 120.028L80.3539 118.783L76.0742 120.028L77.3316 115.76L76.0742 111.48L80.3539 112.738Z" stroke="black" stroke-width="0.410092" stroke-miterlimit="10"/>
</g>
<mask id="mask1_102_416" style="mask-type:luminance" maskUnits="userSpaceOnUse" x="17" y="83" width="26" height="25">
<path d="M42.3755 95.4385L30.1001 83.1631L17.8247 95.4385L30.1001 107.714L42.3755 95.4385Z" fill="white"/>
</mask>
<g mask="url(#mask1_102_416)">
<path d="M34.3505 91.1882L42.1205 95.4216L34.3505 99.689L30.1002 107.442L25.8497 99.689L18.0798 95.4216L25.8497 91.1882L30.1002 83.4014L34.3505 91.1882Z" stroke="black" stroke-width="0.410092" stroke-miterlimit="10"/>
</g>
<path d="M142.803 101.966C142.348 102.791 141.496 103.396 140.251 103.774C139.005 104.152 137.383 104.296 135.422 104.211C131.502 104.042 126.277 102.961 120.104 101.072C107.763 97.2945 91.6837 90.3008 74.7925 80.9839C57.9016 71.667 43.4085 61.7969 33.6303 53.3732C28.7401 49.1607 25.0378 45.3169 22.8037 42.0916C21.6864 40.4783 20.943 39.0294 20.5979 37.7737C20.2531 36.5192 20.3102 35.476 20.7655 34.6505C21.2208 33.8253 22.0726 33.2205 23.3178 32.8428C24.564 32.4651 26.1861 32.3207 28.1465 32.4052C32.0666 32.5746 37.2924 33.6556 43.4647 35.5445C55.8052 39.3218 71.8853 46.3155 88.7762 55.6324C105.667 64.9493 120.161 74.8198 129.939 83.2431C134.829 87.4559 138.531 91.2993 140.765 94.5251C141.883 96.138 142.626 97.5869 142.971 98.8426C143.316 100.097 143.259 101.14 142.803 101.966Z" stroke="black" stroke-width="0.410092"/>
<path d="M137.81 111.019C137.354 111.844 136.502 112.449 135.257 112.826C134.011 113.204 132.389 113.348 130.428 113.264C126.509 113.094 121.282 112.013 115.11 110.125C102.77 106.347 86.6895 99.3535 69.7986 90.0366C52.9074 80.7198 38.4143 70.8493 28.6363 62.426C23.746 58.2131 20.0437 54.3697 17.8096 51.1439C16.6923 49.531 15.9489 48.0822 15.6038 46.8265C15.2589 45.5716 15.316 44.5287 15.7714 43.7032C16.2267 42.8777 17.0785 42.2732 18.3237 41.8955C19.5699 41.5174 21.1919 41.3735 23.1524 41.458C27.0723 41.6269 32.2986 42.7083 38.4705 44.5972C50.8114 48.3746 66.8911 55.3683 83.7824 64.6852C100.673 74.002 115.167 83.8721 124.945 92.2954C129.835 96.5083 133.537 100.352 135.771 103.577C136.888 105.191 137.632 106.64 137.977 107.895C138.322 109.15 138.265 110.193 137.81 111.019Z" stroke="black" stroke-width="0.410092"/>
<path d="M132.816 120.072C132.361 120.898 131.509 121.503 130.264 121.88C129.017 122.258 127.395 122.402 125.435 122.318C121.515 122.149 116.289 121.067 110.117 119.178C97.7761 115.401 81.696 108.407 64.8052 99.0903C47.9143 89.7734 33.4208 79.9033 23.6428 71.4801C18.7526 67.2672 15.0503 63.4234 12.8161 60.198C11.6988 58.5847 10.9555 57.1359 10.6104 55.8802C10.2655 54.6257 10.3226 53.5824 10.7779 52.7569C11.2332 51.9318 12.0851 51.3269 13.3303 50.9492C14.5765 50.5715 16.1985 50.4272 18.1589 50.5116C22.0789 50.681 27.305 51.762 33.477 53.6513C45.8179 57.4283 61.898 64.422 78.7889 73.7388C95.6798 83.0557 110.173 92.9262 119.951 101.35C124.841 105.562 128.544 109.406 130.778 112.632C131.895 114.244 132.638 115.693 132.983 116.949C133.328 118.204 133.271 119.247 132.816 120.072Z" stroke="black" stroke-width="0.410092"/>
<path d="M35.9539 35.498C38.1545 35.498 39.9385 33.7989 39.9385 31.7031C39.9385 29.6072 38.1545 27.9082 35.9539 27.9082C33.7532 27.9082 31.9692 29.6072 31.9692 31.7031C31.9692 33.7989 33.7532 35.498 35.9539 35.498Z" fill="#00AA45"/>
<path d="M107.297 115.569C108.66 115.569 109.764 114.465 109.764 113.102C109.764 111.74 108.66 110.636 107.297 110.636C105.935 110.636 104.831 111.74 104.831 113.102C104.831 114.465 105.935 115.569 107.297 115.569Z" fill="#00AA45"/>
<path d="M23.6203 27.5282C26.7641 27.5282 29.3126 24.9797 29.3126 21.8359C29.3126 18.6921 26.7641 16.1436 23.6203 16.1436C20.4765 16.1436 17.928 18.6921 17.928 21.8359C17.928 24.9797 20.4765 27.5282 23.6203 27.5282Z" fill="black"/>
<path d="M79.038 100.587C77.4817 101.119 75.7035 100.065 75.0847 98.2373L65.4578 70.0316L71.0834 68.1074L80.7197 96.3517C81.3382 98.1602 80.5844 100.055 79.038 100.587Z" fill="black"/>
<path d="M78.1974 100.935C77.743 100.935 77.2792 100.829 76.8347 100.607C75.9358 100.162 75.2206 99.3304 74.8724 98.3056L65.2455 70.0999C65.2069 69.9936 65.2652 69.8677 65.3808 69.8292L71.0065 67.9051C71.0643 67.8858 71.1225 67.8858 71.1705 67.9145C71.2189 67.9436 71.2578 67.9821 71.2771 68.0404L80.9135 96.2846C81.561 98.1994 80.749 100.22 79.0963 100.791C78.8162 100.888 78.5066 100.935 78.1974 100.935ZM65.729 70.1675L75.2882 98.1702C75.5974 99.0888 76.2355 99.843 77.0278 100.23C77.6659 100.539 78.352 100.597 78.9709 100.384C80.4013 99.8914 81.0972 98.112 80.5173 96.42L70.9482 68.3787L65.729 70.1675Z" fill="black"/>
<path d="M70.0871 43.7603L51.8873 56.7463L44.8021 64.105L42.0188 69.0265L42.009 69.0655C41.4582 69.916 41.7769 71.8791 42.8111 73.8808C43.8261 75.8533 45.2565 77.2263 46.2616 77.3038L46.2329 77.3231L51.5776 77.903L61.5818 76.3077L82.8168 68.7075L109.213 73.2328L109.397 73.2427C102.767 72.0046 93.8163 63.138 87.3114 50.5966C80.816 38.065 78.7475 25.6786 81.5988 19.5674H81.5894L70.2323 43.4511L70.0871 43.7603Z" fill="#00AA45"/>
<path d="M113.785 72.6964C120.308 69.307 119.047 53.9421 110.967 38.3779C102.887 22.8132 91.0487 12.9431 84.5254 16.3325C78.0017 19.7215 79.2631 35.0869 87.3427 50.6511C95.4228 66.2157 107.261 76.0858 113.785 72.6964Z" fill="#F4F4F5"/>
<path d="M110.916 73.5806C108.074 73.5806 104.652 71.9948 100.97 68.9105C95.9533 64.7136 91.0334 58.2448 87.1191 50.6836C81.1941 39.235 78.7487 27.4962 80.8943 20.776C81.6095 18.5328 82.8082 16.9662 84.4416 16.1251C87.6891 14.4618 92.2612 15.8737 97.3259 20.1088C102.342 24.3052 107.262 30.774 111.176 38.3357C117.111 49.7842 119.557 61.5227 117.401 68.2433C116.686 70.4865 115.487 72.053 113.854 72.8941C112.974 73.3584 111.988 73.5806 110.916 73.5806ZM87.3992 15.8737C86.4039 15.8737 85.4759 16.0767 84.6446 16.5118C83.108 17.2951 81.9864 18.7842 81.3102 20.9212C79.1933 27.5445 81.6288 39.1575 87.5054 50.5093C95.5088 65.9513 107.243 75.8337 113.67 72.5365C115.207 71.7533 116.328 70.2642 117.005 68.1272C119.121 61.5034 116.686 49.8905 110.809 38.5387C103.84 25.0983 94.0587 15.8737 87.3992 15.8737Z" fill="black"/>
<path d="M110.915 73.5802C108.073 73.5802 104.651 71.9947 100.969 68.91C95.9526 64.7136 91.0327 58.2448 87.1184 50.6831C81.1934 39.2346 78.748 27.4961 80.8936 20.7755C81.6088 18.5323 82.8075 16.9657 84.4409 16.1246C86.6156 15.003 89.4571 15.2835 92.6567 16.9272C95.7205 18.5036 99.0361 21.298 102.264 25.0011C102.341 25.0884 102.332 25.2238 102.245 25.3009C102.158 25.3784 102.022 25.3685 101.945 25.2816C95.392 17.7589 88.7616 14.3941 84.6439 16.5114C83.1073 17.2946 81.9861 18.7837 81.3094 20.9207C79.1925 27.5445 81.6281 39.1571 87.5051 50.5092C94.4639 63.9401 104.255 73.1742 110.905 73.1742C111.901 73.1742 112.829 72.9712 113.66 72.5361C115.197 71.7528 116.318 70.2637 116.994 68.1268C119.111 61.5034 116.675 49.8904 110.799 38.5382C109.049 35.1541 107.078 31.9731 104.961 29.0819C104.893 28.9851 104.913 28.8498 105.009 28.7821C105.106 28.7145 105.241 28.7337 105.309 28.8301C107.445 31.7409 109.417 34.9413 111.185 38.3451C117.11 49.7838 119.556 61.5226 117.4 68.2428C116.685 70.486 115.486 72.0526 113.853 72.8937C112.973 73.3579 111.988 73.5802 110.915 73.5802Z" fill="black"/>
<path d="M98.9824 52.8832C100.494 52.0979 100.203 48.5416 98.3332 44.9398C96.4636 41.3375 93.7225 39.0541 92.2113 39.839C90.6997 40.6244 90.9905 44.1811 92.8605 47.7829C94.7301 51.3848 97.4712 53.6686 98.9824 52.8832Z" fill="#00AA45"/>
<path d="M98.3205 53.256C96.6579 53.256 94.3385 51.1095 92.6661 47.8702C91.2742 45.1821 90.7042 42.4168 91.2164 40.8212C91.4001 40.2606 91.6995 39.864 92.1153 39.6512C93.7586 38.8101 96.571 41.1017 98.5234 44.863C99.9153 47.5512 100.486 50.3168 99.9735 51.9121C99.7898 52.4731 99.49 52.8692 99.0746 53.0821C98.8425 53.1981 98.5911 53.256 98.3205 53.256ZM92.8691 39.8931C92.6661 39.8931 92.4729 39.9317 92.3085 40.0186C91.9899 40.1831 91.7577 40.4927 91.6126 40.9471C91.1389 42.4361 91.6901 45.0857 93.0335 47.6771C94.8121 51.1095 97.4892 53.4204 98.8716 52.7048C99.1907 52.5408 99.4224 52.2311 99.5675 51.7768C100.041 50.2779 99.4806 47.6381 98.1466 45.0467C96.5808 42.0395 94.3385 39.8931 92.8691 39.8931Z" fill="#00AA45"/>
<path d="M109.446 69.9736C106.952 69.9736 103.956 68.5813 100.728 65.8837C96.3393 62.2093 92.0288 56.5431 88.607 49.9291C83.4169 39.9114 81.2807 29.6328 83.1557 23.7443C83.7839 21.7718 84.8375 20.3988 86.2777 19.6541C89.5834 17.962 94.4451 19.9153 99.6258 25.0111C99.7127 25.098 99.7127 25.2235 99.6258 25.3109C99.5388 25.3978 99.4129 25.3978 99.326 25.3109C94.2806 20.3504 89.5929 18.4164 86.4709 20.0314C85.1372 20.7179 84.1608 22.0039 83.5617 23.8698C81.7154 29.6521 83.8422 39.8052 88.9839 49.7356C95.0635 61.4839 103.618 69.5483 109.436 69.5483C110.306 69.5483 111.108 69.3646 111.843 68.9972C113.177 68.3107 114.153 67.0246 114.752 65.1583C116.598 59.376 114.472 49.2233 109.33 39.2926C107.774 36.2952 106.034 33.4811 104.159 30.9382C104.091 30.8418 104.111 30.706 104.207 30.6384C104.304 30.5707 104.439 30.59 104.507 30.6868C106.401 33.2589 108.151 36.0824 109.717 39.0994C114.907 49.1167 117.043 59.3953 115.168 65.2842C114.54 67.2567 113.486 68.6297 112.046 69.374C111.254 69.7706 110.384 69.9736 109.446 69.9736Z" fill="black"/>
<path d="M51.5885 78.1059C51.5786 78.1059 51.5692 78.1059 51.5692 78.1059L46.2241 77.5256C46.1949 77.5256 46.1658 77.5162 46.1371 77.4965C45.0352 77.3226 43.6434 75.9304 42.6284 73.9771C41.5457 71.9172 41.2271 69.9061 41.8164 68.9584L41.8262 68.9297L44.6099 63.9983C44.6194 63.9787 44.6292 63.9692 44.6386 63.9594L51.7238 56.6011C51.7332 56.5913 51.7431 56.5818 51.7525 56.572L69.9044 43.6151L81.387 19.4706C81.4161 19.4222 81.4547 19.3836 81.5129 19.3643C81.5707 19.3447 81.6289 19.3447 81.6773 19.3738C81.7835 19.4222 81.8319 19.5481 81.7835 19.6543C78.8739 25.891 81.1746 38.2872 87.4957 50.4899C93.8267 62.7123 102.651 71.7626 109.446 73.0101C109.553 73.0294 109.63 73.1262 109.62 73.2422C109.61 73.3484 109.514 73.4259 109.408 73.4354L109.224 73.4259C109.214 73.4259 109.205 73.4259 109.195 73.4259L82.8465 68.9104L61.6599 76.491C61.6501 76.491 61.6308 76.5008 61.6214 76.5008L51.6172 78.0961C51.6078 78.1059 51.5979 78.1059 51.5885 78.1059ZM46.3787 77.1196L51.5885 77.6802L61.5439 76.085L82.7694 68.4946C82.808 68.4847 82.8371 68.4749 82.8756 68.4847L106.595 72.5459C100.187 69.7322 92.6957 61.4262 87.1381 50.6929C81.6191 40.0375 79.1544 29.2172 80.5077 22.381L70.2813 43.8472C70.262 43.876 70.2427 43.9051 70.214 43.9243L52.033 56.9103L44.977 64.23L42.1933 69.1618C42.1933 69.1712 42.1838 69.1811 42.1838 69.1811C41.6811 69.9644 42.0194 71.8979 42.9958 73.7835C43.9526 75.6306 45.3346 77.0229 46.2819 77.0905C46.3208 77.0905 46.3496 77.1004 46.3787 77.1196Z" fill="black"/>
<path d="M70.1165 43.6829L81.5893 19.5576H81.5991C78.7478 25.6688 80.8257 38.0552 87.3113 50.5868C93.8162 63.1377 102.766 72.0047 109.416 73.2231L109.233 73.2132L82.8749 68.6977L82.2659 68.5911C79.2021 68.0498 75.1135 64.0661 72.1851 58.3802C69.1791 52.5495 68.6472 46.7385 69.9812 43.9729L70.1165 43.6829Z" fill="#F4F4F5"/>
<path d="M109.417 73.4354L109.224 73.4259C109.214 73.4259 109.204 73.4259 109.194 73.4259L82.8365 68.91L82.2276 68.8038C78.9895 68.2333 74.882 64.0853 71.9917 58.4867C68.715 52.1241 68.551 46.4579 69.7882 43.8858L69.933 43.5954L81.4061 19.48C81.4349 19.4316 81.4738 19.393 81.5316 19.3738C81.5899 19.3545 81.6477 19.3545 81.6961 19.3836C81.8023 19.4316 81.8507 19.5575 81.8023 19.6637C78.8931 25.9008 81.1933 38.2966 87.5145 50.4997C93.8455 62.7217 102.67 71.7724 109.465 73.0195C109.571 73.0388 109.649 73.1356 109.639 73.2516C109.61 73.3484 109.523 73.4354 109.417 73.4354ZM80.488 22.381L70.3099 43.7792L70.1651 44.0695C68.9373 46.6223 69.2953 52.3271 72.369 58.2833C75.2006 63.7757 79.1925 67.8368 82.3051 68.3785L82.9141 68.4847L106.585 72.5459C100.176 69.7322 92.6857 61.4262 87.1282 50.6929C81.6091 40.0375 79.1445 29.2172 80.488 22.381Z" fill="black"/>
<path d="M51.2982 78.0771C51.2883 78.0771 51.2789 78.0771 51.2789 78.0771L46.2138 77.5357C46.1851 77.5357 46.156 77.5259 46.1269 77.5066C45.025 77.3323 43.6331 75.9401 42.6186 73.9868C41.5454 71.9175 41.2267 69.9064 41.816 68.9587L41.8259 68.93L44.6096 63.9982C44.6674 63.892 44.7933 63.8629 44.8995 63.9211C45.0057 63.9789 45.0348 64.1048 44.9766 64.211L42.1933 69.1617C42.1933 69.1715 42.1835 69.1814 42.1835 69.1814C41.6807 69.9646 42.019 71.8982 42.9954 73.7838C43.9522 75.6309 45.3346 77.0231 46.2815 77.0908C46.3106 77.0908 46.3492 77.1006 46.3684 77.1199L51.3174 77.6518C51.4335 77.6612 51.5204 77.7675 51.5012 77.8835C51.4913 77.9901 51.4044 78.0771 51.2982 78.0771Z" fill="black"/>
<path d="M51.6359 77.8641C49.9926 77.748 47.6924 75.4179 46.0201 72.1978C44.2513 68.7846 43.8359 65.2554 44.9182 63.998L42.0282 69.0262L42.009 69.0651C41.4582 69.9161 41.7769 71.8788 42.8111 73.8804C43.8261 75.853 45.2565 77.226 46.2616 77.3035L46.2329 77.3228L51.6359 77.8641Z" fill="#F4F4F5"/>
<path d="M51.6365 78.0773C51.6266 78.0773 51.6266 78.0773 51.6168 78.0773C51.5783 78.0773 51.5299 78.0674 51.4913 78.0674L46.2138 77.5359C46.1851 77.5359 46.156 77.5261 46.1269 77.5068C45.025 77.3325 43.6331 75.9403 42.6186 73.987C41.5454 71.9177 41.2267 69.9066 41.816 68.9589L41.8259 68.9302L44.368 64.5016C44.4644 64.2498 44.5903 64.0275 44.7449 63.8438C44.8126 63.7568 44.938 63.747 45.025 63.8052C45.1119 63.8729 45.141 63.989 45.0832 64.0857L44.7256 64.6947C44.1552 66.2322 44.7158 69.2492 46.1851 72.0727C47.78 75.157 49.9547 77.41 51.5106 77.613L51.6266 77.6229C51.7427 77.6323 51.8296 77.7389 51.8198 77.855C51.8296 77.9903 51.7427 78.0773 51.6365 78.0773ZM46.3684 77.1201L50.0609 77.497C48.6399 76.5882 47.0742 74.7125 45.8275 72.295C44.619 69.9644 44.0199 67.5473 44.1166 65.8069L42.1933 69.1619C42.1933 69.1717 42.1835 69.1816 42.1835 69.1816C41.6807 69.9644 42.019 71.8984 42.9954 73.784C43.9522 75.6311 45.3346 77.0233 46.2815 77.091C46.3106 77.091 46.3492 77.1008 46.3684 77.1201Z" fill="black"/>
<path d="M61.225 76.346L61.6502 76.2591C59.35 76.7426 55.7158 73.2613 53.1544 68.3205C50.5351 63.2731 50.0422 58.2351 51.8978 56.7461L51.6563 56.988L44.9386 63.969C43.8367 65.2067 44.2427 68.7556 46.0212 72.1881C47.7321 75.4951 50.1582 77.8543 51.8109 77.8449L61.225 76.346Z" fill="black"/>
<path d="M51.8008 78.0678C50.0419 78.0678 47.5965 75.6987 45.8274 72.2954C44.03 68.8141 43.5756 65.1786 44.7739 63.8344L51.3661 56.9887C51.4817 56.8337 51.6171 56.6984 51.7623 56.5823C51.8492 56.5146 51.9747 56.5245 52.0522 56.6016C52.1297 56.6889 52.1297 56.8144 52.0522 56.8919L51.6753 57.2885C50.3318 59.0867 50.9987 63.6896 53.3473 68.2244C55.8796 73.1172 59.4174 76.4726 61.5823 76.0662L61.6114 76.0567C61.7275 76.0375 61.8337 76.1051 61.8628 76.2212C61.8821 76.3368 61.8144 76.4435 61.6984 76.4726C61.6885 76.4726 61.6791 76.4726 61.6693 76.482L61.2731 76.5595H61.2633L51.8492 78.058C51.8299 78.058 51.8106 78.0678 51.8008 78.0678ZM50.8055 58.1874L45.0929 64.1247C44.03 65.3234 44.5131 68.824 46.2141 72.1018C47.8766 75.312 50.2252 77.6327 51.8008 77.6426L60.1134 76.3176C57.871 75.5249 55.1066 72.5369 52.9704 68.4274C50.9408 64.5114 50.1576 60.5274 50.8055 58.1874Z" fill="black"/>
<path d="M92.2121 39.834C90.6948 40.6074 90.917 44.1949 92.8502 47.7725C96.0879 53.7578 98.6686 53.0521 98.9684 52.9458C98.9782 52.9458 98.9782 52.9553 98.9684 52.9553L93.4108 57.4323C91.7774 55.1407 90.2211 52.5878 88.7907 49.832C87.4276 47.1923 86.2777 44.5623 85.3689 42.0095L92.2121 39.834Z" fill="black"/>
<path d="M93.4108 57.6448C93.401 57.6448 93.3916 57.6448 93.3817 57.6448C93.3239 57.6349 93.2755 57.6058 93.2369 57.5578C91.5646 55.208 90.0087 52.6359 88.607 49.9383C87.2635 47.3466 86.1038 44.7068 85.1758 42.0961C85.1565 42.0383 85.1565 41.9801 85.1856 41.9317C85.2143 41.8837 85.2533 41.8447 85.3111 41.8255L92.1543 39.6499C92.2605 39.6208 92.3766 39.6692 92.4151 39.7754C92.4541 39.8821 92.4151 39.9981 92.3187 40.0465C91.9899 40.2105 91.7483 40.5394 91.6036 41.0229C91.1299 42.5411 91.7098 45.2292 93.0532 47.6947C96.2138 53.5352 98.6497 52.868 98.9106 52.7712C99.0073 52.7327 99.123 52.7811 99.1714 52.868C99.2198 52.955 99.2005 53.0809 99.123 53.1485L93.5462 57.5964C93.5076 57.6255 93.4592 57.6448 93.4108 57.6448ZM85.6494 42.1445C86.5676 44.6682 87.6888 47.2211 88.9839 49.7349C90.3372 52.346 91.8451 54.8307 93.4592 57.1223L98.2823 53.2355C97.1804 53.1871 95.1025 52.3652 92.6665 47.869C91.2554 45.2678 90.6755 42.5218 91.1877 40.8683C91.2554 40.6555 91.3329 40.4718 91.4293 40.2979L85.6494 42.1445Z" fill="black"/>
<path d="M117.243 23.1164C117.379 23.1069 117.505 23.0393 117.592 22.9425C117.865 22.6455 118.132 22.3611 118.377 22.0997C118.436 22.0377 118.493 21.977 118.548 21.9177C118.588 21.8751 118.628 21.8328 118.667 21.7908C119.467 20.9361 120.156 20.2002 120.617 19.4904C121.158 18.6591 121.371 17.9045 121.284 17.1217M117.243 23.1164L120.327 15.2168L120.327 15.2168C120.858 15.6806 121.197 16.3577 121.284 17.1217M117.243 23.1164C117.108 23.1357 116.983 23.0971 116.867 23.02L117.243 23.1164ZM121.284 17.1217L120.787 17.1769C120.787 17.1771 120.787 17.1774 120.787 17.1777M121.284 17.1217L120.787 17.1782C120.787 17.178 120.787 17.1779 120.787 17.1777M120.787 17.1777C120.858 17.8179 120.693 18.4578 120.198 19.2175L120.197 19.2181C119.761 19.8896 119.101 20.5956 118.283 21.469C118.25 21.5043 118.217 21.5398 118.184 21.5757M120.787 17.1777C120.712 16.5245 120.426 15.9668 119.998 15.5935L119.997 15.5929C119.564 15.2133 119.008 15.0417 118.429 15.1044M118.184 21.5757L112.911 16.3715C112.911 16.3717 112.911 16.3719 112.911 16.3721M118.184 21.5757C118.128 21.6345 118.072 21.6949 118.014 21.7567C117.768 22.0182 117.499 22.3049 117.224 22.6038L117.224 22.6038L117.22 22.6084C117.219 22.6096 117.217 22.6111 117.215 22.6128C117.213 22.6144 117.211 22.6157 117.209 22.6167C117.208 22.6172 117.207 22.6175 117.206 22.6178L117.191 22.6188L117.176 22.621C117.172 22.6197 117.162 22.6159 117.147 22.6059C116.732 22.3158 116.335 22.045 115.986 21.8122L115.938 21.7795C114.922 21.0891 114.093 20.526 113.503 19.9538L113.501 19.9519C112.853 19.329 112.555 18.7365 112.483 18.0937M118.184 21.5757L112.483 18.0937M118.429 15.1044C118.429 15.1044 118.429 15.1044 118.429 15.1044L118.374 14.6076L118.428 15.1045C118.428 15.1045 118.429 15.1045 118.429 15.1044ZM118.429 15.1044C118.01 15.1504 117.639 15.3229 117.322 15.6326L117.318 15.6365L117.318 15.6365C117.156 15.7907 117.012 15.9811 116.888 16.2037L116.551 16.8117L116.082 16.2983C115.904 16.1037 115.728 15.9537 115.536 15.8385L115.533 15.8364L115.533 15.8364C115.15 15.6024 114.758 15.5132 114.33 15.5589M114.33 15.5589C114.33 15.5589 114.33 15.5589 114.33 15.5589L114.276 15.0619L114.33 15.5589C114.33 15.5589 114.33 15.5589 114.33 15.5589ZM114.33 15.5589C113.752 15.6216 113.252 15.9073 112.911 16.3721M112.911 16.3721C112.576 16.8324 112.417 17.4404 112.483 18.0937M112.911 16.3721L112.483 18.0937" stroke="black"/>
<path d="M142.258 21.4921C141.794 21.4921 141.388 21.7143 141.117 22.0625L138.324 20.9696C138.324 20.9311 138.334 20.9019 138.334 20.8634C138.334 20.7957 138.324 20.7281 138.314 20.6604L141.175 19.3358C141.436 19.6356 141.823 19.8287 142.258 19.8386C143.05 19.8386 143.707 19.1906 143.707 18.3881C143.707 17.5855 143.06 16.9277 142.258 16.9277C141.465 16.9277 140.808 17.5757 140.808 18.3782C140.808 18.4459 140.818 18.5136 140.827 18.5812L137.966 19.9062C137.705 19.6065 137.319 19.4129 136.884 19.4035C136.091 19.4035 135.434 20.051 135.434 20.8535C135.434 21.6561 136.081 22.3139 136.884 22.3139C137.348 22.3139 137.754 22.0912 138.024 21.7434L140.818 22.8359C140.818 22.8745 140.808 22.9036 140.808 22.9421C140.808 23.7447 141.456 24.4025 142.258 24.4025C143.05 24.4025 143.707 23.7545 143.707 22.952C143.698 22.1494 143.05 21.5015 142.258 21.4921Z" fill="black"/>
<path d="M135.541 49.9284L134.323 43.3242C134.265 42.9859 134.574 42.7054 134.903 42.7924L142.103 44.8326C142.471 44.9392 142.558 45.4128 142.258 45.6449L136.265 50.2089C136.005 50.4217 135.608 50.2765 135.541 49.9284Z" fill="black"/>
<path d="M128.582 69.4994L128.582 69.4994L128.582 69.4994ZM133.063 78.4062C132.305 77.1659 130.614 74.3126 129.695 71.9759L129.695 71.9759L129.694 71.9739C129.281 70.9358 129.058 70.074 129.082 69.5212L129.082 69.5193C129.177 67.1274 131.196 65.2633 133.587 65.3579C135.982 65.4716 137.843 67.4853 137.748 69.8761C137.728 70.359 137.499 71.0667 137.103 71.9225C136.713 72.7632 136.189 73.6916 135.632 74.5969C134.673 76.1573 133.634 77.6223 133.063 78.4062Z" fill="black" stroke="black"/>
<path d="M134.978 71.2701C135.843 70.4056 135.843 69.0035 134.978 68.1386C134.114 67.2741 132.713 67.2741 131.848 68.1386C130.984 69.0035 130.984 70.4056 131.848 71.2701C132.713 72.1349 134.114 72.1349 134.978 71.2701Z" fill="#00AA45"/>
</svg>
